Coordinates
version=1
nRows=16
nColumns=18
inDegrees=yes

Units are S.I. units (second, meters, Newtons, ...)
If the header above contains a line with 'inDegrees', this indicates whether rotational values are in degrees (yes) or radians (no).

endheader
time	ground_thorax_rot_x	ground_thorax_rot_y	ground_thorax_rot_z	ground_thorax_tx	ground_thorax_ty	ground_thorax_tz	clav_prot	clav_elev	scapula_abduction	scapula_elevation	scapula_upward_rot	scapula_winging	plane_elv	shoulder_elv	axial_rot	elbow_flexion	pro_sup
      4.24000000	     -3.43757945	     -4.25566206	     -8.03049745	     -0.00461024	      0.00499129	     -0.00726652	    -37.86513647	      7.85228594	     -2.84276418	     -3.25778291	     65.19429112	     -9.81096912	     44.72413662	     93.32104640	    -15.27705614	      0.00000000	     34.32000000
      4.25000000	     -3.51190914	     -4.44934396	     -7.93662183	     -0.00463429	      0.00520235	     -0.00716483	    -37.71712619	      7.60997551	     -2.74876173	     -3.41569534	     64.91839233	     -9.68258987	     45.17305022	     92.96039954	    -15.29073763	      0.00000000	     34.32000000
      4.26000000	     -3.50199315	     -4.68126241	     -7.99104216	     -0.00463537	      0.00518364	     -0.00702316	    -37.62072635	      7.52899078	     -2.73913892	     -3.46646061	     64.70300193	     -9.62080635	     45.52983473	     92.74135882	    -15.30757345	      0.00000000	     34.32000000
      4.27000000	     -3.52708250	     -4.83973614	     -8.01863517	     -0.00463043	      0.00520659	     -0.00698240	    -37.51690761	      7.53359004	     -2.73348800	     -3.45781587	     64.49750770	     -9.57958608	     45.82685092	     92.52662431	    -15.32209654	      0.00000000	     34.32000000
      4.28000000	     -3.47864712	     -4.79493482	     -8.13754774	     -0.00463121	      0.00517385	     -0.00709959	    -37.45725935	      7.55774494	     -2.70290147	     -3.43756489	     64.42027448	     -9.56125344	     45.88864304	     92.43932158	    -15.33174250	      0.00000000	     34.32000000
      4.29000000	     -3.56510542	     -4.92465908	     -8.00084153	     -0.00464691	      0.00528246	     -0.00695282	    -37.33929470	      7.63167905	     -2.66693638	     -3.37976488	     64.24696331	     -9.53262135	     46.25491995	     92.10775931	    -15.40002897	      0.00000000	     34.32000000
      4.30000000	     -3.50029186	     -4.87278331	     -8.09713458	     -0.00467791	      0.00515109	     -0.00692162	    -37.28401796	      7.64472754	     -2.63391503	     -3.36727235	     64.17782166	     -9.51295790	     46.30824573	     92.02711265	    -15.41083684	      0.00000000	     34.32000000
      4.31000000	     -3.46962580	     -4.92349849	     -7.92648127	     -0.00485039	      0.00536649	     -0.00672638	    -37.14590132	      7.60746651	     -2.50417023	     -3.38330988	     64.03768698	     -9.44428164	     46.68930423	     91.70780304	    -15.50665356	      0.00000000	     34.32000000
      4.32000000	     -3.37197756	     -4.86036235	     -8.05064144	     -0.00493397	      0.00509799	     -0.00662663	    -37.07160662	      7.61498635	     -2.45956589	     -3.37331930	     63.94144060	     -9.41527635	     46.75569041	     91.59993985	    -15.51978925	      0.00000000	     34.32000000
      4.33000000	     -3.30713548	     -4.92407023	     -7.96114331	     -0.00509348	      0.00530860	     -0.00644118	    -36.91690084	      7.48746217	     -2.27295338	     -3.44955425	     63.80419106	     -9.31500131	     47.12463170	     91.33366192	    -15.56830648	      0.00000000	     34.32000000
      4.34000000	     -3.39684842	     -5.16656837	     -7.92285693	     -0.00509577	      0.00529897	     -0.00633963	    -36.68422732	      7.48976477	     -2.06502446	     -3.43155690	     63.57740602	     -9.21918574	     47.36198489	     91.02103618	    -15.57224080	      0.00000000	     34.32000000
      4.35000000	     -3.42706575	     -5.35224758	     -7.93913095	     -0.00507069	      0.00534427	     -0.00634674	    -36.52726919	      7.54483188	     -1.95056003	     -3.38270632	     63.41170324	     -9.17000616	     47.62006118	     90.82782716	    -15.58469931	      0.00000000	     34.32000000
      4.36000000	     -3.46797828	     -5.52597551	     -7.93418588	     -0.00504524	      0.00538340	     -0.00636209	    -36.40823422	      7.64538084	     -1.89489723	     -3.30540957	     63.26900092	     -9.14897866	     47.91007677	     90.63568771	    -15.63419866	      0.00000000	     34.32000000
      4.37000000	     -3.45205499	     -5.60732719	     -7.85503291	     -0.00509707	      0.00540317	     -0.00635487	    -36.29647811	      7.81394950	     -1.83670592	     -3.18186245	     63.16850756	     -9.14863989	     48.18504773	     90.42379444	    -15.75739136	      0.00000000	     34.32000000
      4.38000000	     -3.41881559	     -5.62977260	     -7.86456882	     -0.00509754	      0.00543337	     -0.00631185	    -36.21172284	      7.81450777	     -1.77631253	     -3.17528350	     63.06698739	     -9.11442202	     48.46412740	     90.22190922	    -15.83792406	      0.00000000	     34.32000000
      4.39000000	     -3.38785198	     -5.68642942	     -7.87345561	     -0.00511043	      0.00538429	     -0.00624229	    -36.10839892	      7.77151946	     -1.71023271	     -3.19712635	     62.91863844	     -9.06137543	     48.80056443	     89.99061715	    -15.91510881	      0.00000000	     34.32000000
